# xmcd
#
# Track frame offsets:
#	150
#	13882
#	27885
#	40452
#	52807
#	65142
#	75675
#	92345
#	109360
#	122790
#	141530
#	153297
#	166232
#	180372
#	198460
#	215310
#	230975
#	244712
#	259960
#	281265
#
# Disc length: 4082 seconds
#
# Revision: 0
# Processed by: cddbd v1.4PL0 Copyright (c) Steve Scherf et al.
# Submitted via: audiograbber 1.81.02
#
DISCID=1d0ff014
DTITLE=Johnny Cash - The Essential Johnny Cash [CD2]
DYEAR=2001
DGENRE=Country
TTITLE0=It Ain't Me, Babe (with June Carter Cash)
TTITLE1=Orange Blossom Special (with Charlie McCoy, Boots Randolph and The Carter
TTITLE1=Family)
TTITLE2=The One On The Right Is On The Left
TTITLE3=Jackson (with June Carter Cash)
TTITLE4=Folsom Prison Blues (Live)
TTITLE5=Daddy Sang Bass
TTITLE6=Girl From The North Country (with Bob Dylan)
TTITLE7=A Boy Named Sue (Live)
TTITLE8=If I Were A Carpenter (with June Carter Cash)
TTITLE9=Sunday Morning Coming Down
TTITLE10=Flesh And Blood
TTITLE11=Man In Black
TTITLE12=Ragged Old Flag
TTITLE13=One Piece At A Time
TTITLE14=(Ghost) Riders In The Sky
TTITLE15=Song Of The Patriot (with Marty Robbins)
TTITLE16=Highwayman (with Willie Nelson, Waylon Jennings and Kris Kristofferson)
TTITLE17=The Night Hank Williams Came To Town (with Waylon Jennings)
TTITLE18=The Wanderer (with U2)
TTITLE19=Man In White
EXTD=
EXTT0=
EXTT1=
EXTT2=
EXTT3=
EXTT4=
EXTT5=
EXTT6=
EXTT7=
EXTT8=
EXTT9=
EXTT10=
EXTT11=
EXTT12=
EXTT13=
EXTT14=
EXTT15=
EXTT16=
EXTT17=
EXTT18=
EXTT19=
PLAYORDER=
